Coordinates
version=1
nRows=40
nColumns=30
inDegrees=yes

Units are S.I. units (second, meters, Newtons, ...)
Angles are in degrees.

endheader
time	floatyaw	floatroll	floatpitch	floatx	floaty	floatz	pro_sup_l	deviation_l	flexion_l	cmc_flexion_l	cmc_abduction_l	mp_flexion_l	ip_flexion_l	2mcp_flexion_l	2mcp_abduction_l	2pm_flexion_l	2md_flexion_l	3mcp_flexion_l	3mcp_abduction_l	3pm_flexion_l	3md_flexion_l	4mcp_flexion_l	4mcp_abduction_l	4pm_flexion_l	4md_flexion_l	5mcp_flexion_l	5mcp_abduction_l	5pm_flexion_l	5md_flexion_l
0.005000	3.029614	-4.103828	101.268469	0.060475	-0.143121	0.045127	86.267398	18.065438	4.675298	23.822268	38.223253	-18.585808	-41.098630	34.304897	4.186979	58.787972	40.563299	40.515851	5.442888	58.216091	39.710602	43.173501	-4.893706	63.519946	46.820066	59.900708	-6.251022	55.044274	35.149619
0.015000	3.029614	-4.103828	101.268469	0.060275	-0.140659	0.044851	86.054571	18.157698	4.058346	23.750669	38.171815	-18.537407	-41.092014	34.511328	4.148503	58.580129	40.589184	40.782538	5.467757	58.107268	39.802394	43.586816	-4.882775	63.232463	46.783161	60.550338	-6.274272	54.577397	35.020205
0.025000	3.029614	-4.103828	101.268469	0.060024	-0.137526	0.044631	85.921625	18.165696	3.522995	23.661368	38.135936	-18.461882	-41.051745	34.749484	4.096022	58.198733	40.641736	41.167492	5.470820	57.676313	39.907927	44.091974	-4.883030	62.629825	46.764978	61.265815	-6.251489	53.663773	34.765046
0.035000	3.029614	-4.103828	101.268469	0.059848	-0.134088	0.044432	85.858696	18.137728	3.167035	23.528551	38.128373	-18.346791	-40.943139	35.052666	4.039583	57.630237	40.710476	41.669376	5.453694	56.922144	40.083299	44.687953	-4.892136	61.726034	46.814899	62.095725	-6.179950	52.330177	34.391806
0.045000	3.029614	-4.103828	101.268469	0.059855	-0.130838	0.044211	85.836474	18.140964	3.031905	23.348969	38.149665	-18.193507	-40.744814	35.420229	3.995041	56.946893	40.789193	42.243740	5.422530	55.945517	40.376562	45.329378	-4.906724	60.648272	46.986426	63.037069	-6.070787	50.774071	33.972881
0.055000	3.029614	-4.103828	101.268469	0.060088	-0.128223	0.043935	85.819527	18.232986	3.091874	23.150759	38.192362	-18.025536	-40.478552	35.805915	3.976516	56.295514	40.881196	42.804401	5.386357	54.934682	40.806041	45.925443	-4.924779	59.616584	47.314647	64.021649	-5.946691	49.301357	33.616115
0.065000	3.029614	-4.103828	101.268469	0.060506	-0.126496	0.043603	85.782605	18.435167	3.272068	22.983219	38.244022	-17.883548	-40.214088	36.131177	3.989846	55.843292	40.994567	43.248821	5.353804	54.103315	41.345354	46.367598	-4.946371	58.866812	47.793208	64.935228	-5.834324	48.201986	33.413569
0.075000	3.029614	-4.103828	101.268469	0.060998	-0.125648	0.043239	85.718489	18.722270	3.482020	22.890871	38.286703	-17.807794	-40.039158	36.323411	4.030498	55.701094	41.129143	43.500866	5.329886	53.603722	41.925576	46.578363	-4.972499	58.546968	48.368062	65.667059	-5.753575	47.624517	33.395688
0.085000	3.029614	-4.103828	101.268469	0.061426	-0.125461	0.042882	85.632900	19.033599	3.646404	22.888699	38.294514	-17.818082	-40.010587	36.358759	4.086385	55.865214	41.264927	43.548764	5.314909	53.460351	42.456624	46.553872	-5.003112	58.644634	48.954740	66.162138	-5.709761	47.517136	33.518098
0.095000	3.029614	-4.103828	101.268469	0.061681	-0.125633	0.042560	85.532680	19.299423	3.721309	22.956289	38.233293	-17.904023	-40.118770	36.280517	4.143350	56.215348	41.362970	43.453305	5.306007	53.564569	42.858426	46.370890	-5.035873	58.993543	49.469416	66.443090	-5.694137	47.667422	33.688877
0.105000	3.029614	-4.103828	101.268469	0.061721	-0.125908	0.042285	85.417554	19.469015	3.695698	23.054424	38.065228	-18.031764	-40.291075	36.177571	4.190376	56.574698	41.381658	43.317141	5.299773	53.737558	43.086557	46.149999	-5.066660	59.360244	49.855874	66.588080	-5.692221	47.817915	33.818570
0.115000	3.029614	-4.103828	101.268469	0.061572	-0.126142	0.042052	85.280807	19.527295	3.584323	23.150813	37.757453	-18.162597	-40.432835	36.134854	4.222436	56.797563	41.299352	43.231620	5.294016	53.824746	43.141030	45.995713	-5.091392	59.560009	50.096037	66.680292	-5.693703	47.792859	33.862310
0.125000	3.029614	-4.103828	101.268469	0.061302	-0.126310	0.041851	85.116642	19.494565	3.417341	23.236651	37.290326	-18.271747	-40.478191	36.187723	4.240439	56.832279	41.128413	43.233191	5.287910	53.765915	43.056908	45.949127	-5.107841	59.534733	50.203500	66.761844	-5.697255	47.568385	33.831540
0.135000	3.029614	-4.103828	101.268469	0.060989	-0.126457	0.041672	84.927794	19.412684	3.228651	23.324776	36.660854	-18.356984	-40.418482	36.308374	4.249017	56.726536	40.911034	43.294229	5.281264	53.604597	42.884484	45.978823	-5.116387	59.354850	50.208151	66.819229	-5.707996	47.255675	33.774143
0.145000	3.029614	-4.103828	101.268469	0.060683	-0.126645	0.041509	84.727757	19.325965	3.044719	23.434187	35.880629	-18.434376	-40.295422	36.428986	4.253565	56.581420	40.699647	43.349312	5.273906	53.441790	42.669952	46.010049	-5.119594	59.157046	50.141505	66.804402	-5.730792	47.019129	33.740193
0.155000	3.029614	-4.103828	101.268469	0.060399	-0.126911	0.041361	84.536132	19.264851	2.877528	23.573895	34.972273	-18.526109	-40.171215	36.482771	4.257952	56.489884	40.534209	43.336589	5.265586	53.370694	42.444128	45.970010	-5.121172	59.063745	50.028356	66.673188	-5.764851	46.984257	33.754625
0.165000	3.029614	-4.103828	101.268469	0.060119	-0.127260	0.041230	84.370302	19.237743	2.724508	23.736734	33.968338	-18.647960	-40.097699	36.436954	4.263751	56.496093	40.428805	43.229215	5.256139	53.431469	42.220646	45.822699	-5.124886	59.130001	49.884965	66.415843	-5.803292	47.184821	33.809098
0.175000	3.029614	-4.103828	101.268469	0.059815	-0.127670	0.041125	84.238826	19.232741	2.574503	23.904544	32.911144	-18.801778	-40.099163	36.301937	4.270855	56.590381	40.372774	43.042908	5.245589	53.603593	42.000950	45.578529	-5.133624	59.336669	49.721355	66.064338	-5.837277	47.566090	33.872375
0.185000	3.029614	-4.103828	101.268469	0.059464	-0.128102	0.041056	84.140029	19.227130	2.415851	24.058071	31.847986	-18.974785	-40.170984	36.117325	4.278619	56.730850	40.342912	42.821136	5.234150	53.828655	41.782261	45.280529	-5.148642	59.619142	49.545407	65.677020	-5.861078	48.027294	33.909762
0.195000	3.029614	-4.103828	101.268469	0.059061	-0.128525	0.041032	84.065316	19.199213	2.242795	24.183940	30.819849	-19.145054	-40.288681	35.926923	4.286634	56.871983	40.318288	42.609831	5.222166	54.043784	41.564709	44.979245	-5.169103	59.906885	49.366755	65.312658	-5.874395	48.471508	33.900323
0.205000	3.029614	-4.103828	101.268469	0.058619	-0.128914	0.041056	84.004254	19.136743	2.058161	24.275877	29.850345	-19.290734	-40.420221	35.757381	4.294877	56.984392	40.289391	42.435855	5.209994	54.207695	41.354415	44.710149	-5.192270	60.152626	49.198142	65.008247	-5.880809	48.838105	33.844149
0.215000	3.029614	-4.103828	101.268469	0.058164	-0.129260	0.041121	83.948774	19.039033	1.871822	24.332370	28.944891	-19.399040	-40.536213	35.610265	4.303505	57.060375	40.258034	42.298942	5.197839	54.310629	41.161214	44.482880	-5.214478	60.342427	49.052541	64.770018	-5.884230	49.110304	33.758150
0.225000	3.029614	-4.103828	101.268469	0.057721	-0.129561	0.041213	83.895285	18.913606	1.695952	24.354294	28.102295	-19.470671	-40.615750	35.468911	4.312643	57.108621	40.230493	42.178617	5.185696	54.368760	40.992880	44.284438	-5.232469	60.488895	48.937195	64.578923	-5.886204	49.304253	33.664864
0.235000	3.029614	-4.103828	101.268469	0.057307	-0.129825	0.041318	83.844280	18.770538	1.539667	24.344306	27.328873	-19.517427	-40.648486	35.313218	4.322241	57.144659	40.210124	42.049502	5.173467	54.409510	40.850307	44.091567	-5.244436	60.615766	48.848993	64.404691	-5.885699	49.451024	33.581883
0.245000	3.029614	-4.103828	101.268469	0.056929	-0.130061	0.041423	83.797610	18.617688	1.405907	24.307764	26.642189	-19.554946	-40.634184	35.132138	4.332028	57.182677	40.194732	41.895037	5.161111	54.456547	40.727221	43.883879	-5.250406	60.743661	48.775204	64.219948	-5.880812	49.581275	33.517670
0.255000	3.029614	-4.103828	101.268469	0.056587	-0.130279	0.041524	83.754782	18.458660	1.291746	24.253726	26.061306	-19.595391	-40.580223	34.927231	4.341562	57.231444	40.179238	41.712782	5.148744	54.521722	40.613962	43.651052	-5.252022	60.883979	48.699243	64.008567	-5.870680	49.717614	33.473929
0.265000	3.029614	-4.103828	101.268469	0.056273	-0.130491	0.041620	83.710720	18.293642	1.190953	24.194714	25.592366	-19.644119	-40.497313	34.708268	4.350310	57.294017	40.159844	41.511330	5.136713	54.605850	40.501566	43.393010	-5.251922	61.041433	48.607122	63.767278	-5.856428	49.874368	33.450165
0.275000	3.029614	-4.103828	101.268469	0.055982	-0.130708	0.041709	83.656890	18.121941	1.096781	24.144905	25.220282	-19.700716	-40.394954	34.486436	4.357695	57.369580	40.135903	41.303525	5.125641	54.704715	40.383322	43.116252	-5.252875	61.219899	48.490870	63.502586	-5.841059	50.061036	33.446124
0.285000	3.029614	-4.103828	101.268469	0.055715	-0.130939	0.041793	83.585530	17.944454	1.003922	24.117565	24.909661	-19.762025	-40.279680	34.269264	4.363191	57.456489	40.109160	41.100264	5.116300	54.815158	40.254453	42.829596	-5.256945	61.425668	48.348799	63.225276	-5.828734	50.285690	33.461244
0.295000	3.029614	-4.103828	101.268469	0.055472	-0.131186	0.041868	83.494441	17.764662	0.909904	24.122227	24.611449	-19.824679	-40.157699	34.057919	4.366553	57.555748	40.082521	40.906444	5.109242	54.938123	40.112305	42.540490	-5.264996	61.665973	48.184708	62.944431	-5.823620	50.555977	33.492944
0.305000	3.029614	-4.103828	101.268469	0.055255	-0.131447	0.041938	83.389131	17.587658	0.816234	24.161280	24.272654	-19.885839	-40.039138	33.846912	4.368075	57.672231	40.059546	40.719710	5.104376	55.077704	39.957886	42.252618	-5.276610	61.944131	48.007081	62.663633	-5.828437	50.875949	33.535610
0.315000	3.029614	-4.103828	101.268469	0.055063	-0.131707	0.042003	83.280744	17.417947	0.728688	24.226333	23.850292	-19.942171	-39.938111	33.627557	4.368620	57.810548	40.043720	40.533040	5.100770	55.236570	39.797111	41.966344	-5.290224	62.253837	47.827448	62.382193	-5.843228	51.238312	33.580696
0.325000	3.029614	-4.103828	101.268469	0.054891	-0.131947	0.042071	83.181261	17.257686	0.655729	24.297164	23.328952	-19.988428	-39.865825	33.395196	4.369309	57.966790	40.036556	40.340970	5.096882	55.409965	39.639429	41.682609	-5.303452	62.575561	47.656938	62.101451	-5.865079	51.615904	33.617518
0.335000	3.029614	-4.103828	101.268469	0.054732	-0.132147	0.042143	83.099415	17.106889	0.605058	24.346738	22.733787	-20.017852	-39.821088	33.155955	4.371057	58.123207	40.035535	40.146064	5.091200	55.582583	39.493411	41.407714	-5.313758	62.878297	47.501836	61.831517	-5.889012	51.960432	33.634398
0.345000	3.029614	-4.103828	101.268469	0.054583	-0.132290	0.042222	83.039688	16.965533	0.579783	24.352222	22.127023	-20.025344	-39.786753	32.926903	4.374163	58.252822	40.034171	39.960560	5.083042	55.732022	39.361797	41.154344	-5.319495	63.128393	47.360739	61.591849	-5.909526	52.215082	33.620439
0.355000	3.029614	-4.103828	101.268469	0.054442	-0.132371	0.042304	83.003590	16.835606	0.576380	24.306427	21.584308	-20.011520	-39.737132	32.727620	4.378148	58.333466	40.025084	39.800802	5.073076	55.838367	39.239795	40.936517	-5.320783	63.302954	47.225709	61.402934	-5.922058	52.338733	33.568347
0.365000	3.029614	-4.103828	101.268469	0.054310	-0.132399	0.042383	82.990676	16.721001	0.585656	24.222226	21.162415	-19.984116	-39.652938	32.568617	4.381940	58.361863	40.004249	39.677788	5.063136	55.894303	39.118457	40.761556	-5.319488	63.400711	47.087356	61.273926	-5.923990	52.328805	33.477807
0.375000	3.029614	-4.103828	101.268469	0.054187	-0.132395	0.042454	82.998018	16.625192	0.596146	24.126508	20.877759	-19.954991	-39.533963	32.445424	4.384391	58.356812	39.973250	39.590827	5.055356	55.908755	38.991007	40.625471	-5.318167	63.442883	46.940844	61.195563	-5.915150	52.226789	33.357370
0.385000	3.029614	-4.103828	101.268469	0.054075	-0.132385	0.042513	83.019352	16.548725	0.598153	24.047071	20.707544	-19.934624	-39.400542	32.342771	4.384891	58.348500	39.937906	39.528989	5.051070	55.901439	38.857452	40.515673	-5.318664	63.462405	46.788824	61.144352	-5.897788	52.100107	33.222686
0.395000	3.029614	-4.103828	101.268469	0.053974	-0.132390	0.042561	83.045740	16.488557	0.586852	24.000001	20.609001	-19.927846	-39.282145	32.244889	4.383719	58.361864	39.904671	39.478466	5.050135	55.892545	38.724287	40.418615	-5.321289	63.488074	46.639470	61.095178	-5.875952	52.010195	33.091090
